<svg width="65" height="65" viewBox="0 0 65 65" fill="none" xmlns="http://www.w3.org/2000/svg">
<mask id="mask0_195_2363" style="mask-type:alpha" maskUnits="userSpaceOnUse" x="0" y="0" width="65" height="65">
<circle cx="32.5" cy="32.5" r="32.5" fill="#FCFCFC"/>
</mask>
<g mask="url(#mask0_195_2363)">
<circle cx="32.5" cy="32.5" r="32.5" fill="white"/>
<rect x="10.5605" y="57.6885" width="44.6875" height="8.125" fill="#D90026"/>
<rect x="10.5605" y="57.6885" width="44.6875" height="8.125" fill="#D90026"/>
<rect x="0.813477" y="41.4385" width="64.1875" height="8.125" fill="#D90026"/>
<rect x="0.813477" y="41.4385" width="64.1875" height="8.125" fill="#D90026"/>
<rect x="0.813477" y="24.375" width="64.1875" height="8.125" fill="#D90026"/>
<rect x="0.813477" y="24.375" width="64.1875" height="8.125" fill="#D90026"/>
<rect x="0.813477" y="8.125" width="64.1875" height="8.125" fill="#D90026"/>
<rect x="0.813477" y="8.125" width="64.1875" height="8.125" fill="#D90026"/>
<rect width="33.3125" height="32.5" fill="#0052B5"/>
<path d="M26.8115 27.2183L24.374 28.437L25.1865 25.9995L23.5615 24.3745H25.999L26.8115 21.937L28.0303 24.3745H30.0615L28.4365 25.9995L29.249 28.437L26.8115 27.2183Z" fill="#EFEFEF"/>
<path d="M15.4375 27.2183L13 28.437L13.8125 25.9995L12.1875 24.3745H14.625L15.4375 21.937L16.6562 24.3745H18.6875L17.0625 25.9995L17.875 28.437L15.4375 27.2183Z" fill="#EFEFEF"/>
<path d="M4.06348 27.2183L1.62598 28.437L2.43848 25.9995L0.813477 24.3745H3.25098L4.06348 21.937L5.28223 24.3745H7.31348L5.68848 25.9995L6.50098 28.437L4.06348 27.2183Z" fill="#EFEFEF"/>
<path d="M26.8115 18.2822L24.374 19.501L25.1865 17.0635L23.5615 15.4385H25.999L26.8115 13.001L28.0303 15.4385H30.0615L28.4365 17.0635L29.249 19.501L26.8115 18.2822Z" fill="#EFEFEF"/>
<path d="M26.8115 9.34375L24.374 10.5625L25.1865 8.125L23.5615 6.5H25.999L26.8115 4.0625L28.0303 6.5H30.0615L28.4365 8.125L29.249 10.5625L26.8115 9.34375Z" fill="#EFEFEF"/>
<path d="M26.8115 0.405273L24.374 1.62402L25.1865 -0.813477L23.5615 -2.43848H25.999L26.8115 -4.87598L28.0303 -2.43848H30.0615L28.4365 -0.813477L29.249 1.62402L26.8115 0.405273Z" fill="#EFEFEF"/>
<path d="M15.4375 9.34375L13 10.5625L13.8125 8.125L12.1875 6.5H14.625L15.4375 4.0625L16.6562 6.5H18.6875L17.0625 8.125L17.875 10.5625L15.4375 9.34375Z" fill="#EFEFEF"/>
<path d="M15.4375 18.2822L13 19.501L13.8125 17.0635L12.1875 15.4385H14.625L15.4375 13.001L16.6562 15.4385H18.6875L17.0625 17.0635L17.875 19.501L15.4375 18.2822Z" fill="#EFEFEF"/>
<path d="M4.06348 18.2822L1.62598 19.501L2.43848 17.0635L0.813477 15.4385H3.25098L4.06348 13.001L5.28223 15.4385H7.31348L5.68848 17.0635L6.50098 19.501L4.06348 18.2822Z" fill="#EFEFEF"/>
</g>
</svg>
