<svg width="343" height="60" viewBox="0 0 343 60" fill="none" xmlns="http://www.w3.org/2000/svg">
<path d="M3.69824 37.7104V37.0514C5.01623 37.0514 5.89489 36.8903 6.33422 36.5681C7.00785 36.1581 7.34467 35.3819 7.34467 34.2397L7.43254 9.50547C7.43254 8.45109 7.08107 7.67494 6.37815 7.17703C5.93882 6.88414 5.07481 6.7377 3.78611 6.7377V6.03478H18.1522V6.7377C16.8049 6.7377 15.9262 6.88414 15.5162 7.17703C14.8426 7.61636 14.5057 8.39251 14.5057 9.50547L14.5497 33.5368C14.5497 34.4154 14.6961 34.9573 14.989 35.1623C15.3112 35.3673 16.7756 35.4698 19.3823 35.4698C22.9848 35.4698 25.3718 35.1476 26.5433 34.5033C27.7442 33.8589 28.7839 32.2627 29.6626 29.7146L30.3655 29.8903L28.3007 37.7104H3.69824Z" fill="white"/>
<path d="M32.1273 37.7104V37.0514C33.4453 37.0514 34.3239 36.8903 34.7633 36.5681C35.4662 36.1581 35.8176 35.3819 35.8176 34.2397L35.7737 9.50547C35.7737 8.39251 35.4515 7.61636 34.8072 7.17703C34.5436 7.03059 34.2068 6.91343 33.7967 6.82557C33.3867 6.7377 32.8595 6.69377 32.2151 6.69377V6.03478H42.9787L52.5561 27.8694L62.2213 6.03478H72.7652V6.69377C71.5058 6.69377 70.6564 6.85486 70.2171 7.17703C69.5142 7.61636 69.1627 8.39251 69.1627 9.50547L69.2066 34.2397C69.2066 35.2941 69.5581 36.0702 70.261 36.5681C70.5246 36.7439 70.8468 36.8757 71.2275 36.9635C71.6083 37.0221 72.1209 37.0514 72.7652 37.0514V37.7104H58.3991V37.0514C59.6586 37.0514 60.5372 36.8903 61.0351 36.5681C61.738 36.1581 62.0895 35.3819 62.0895 34.2397V12.2732L50.9745 37.7104H49.0854L38.0582 12.449V34.2397C38.0582 35.2941 38.4097 36.0702 39.1126 36.5681C39.3762 36.7439 39.6984 36.8757 40.0791 36.9635C40.4599 37.0221 40.9871 37.0514 41.6607 37.0514V37.7104H32.1273Z" fill="white"/>
<path d="M101.317 6.07871L102.02 6.03478L102.591 16.4029L101.932 16.359C101.669 15.0703 101.288 13.9427 100.79 12.9762C100.087 11.336 98.9155 10.0034 97.2753 8.97828C95.6351 7.95318 93.8778 7.44063 92.0033 7.44063C88.8402 7.44063 86.2774 8.74397 84.3151 11.3507C82.382 13.9573 81.4155 17.4427 81.4155 21.8067C81.4155 25.995 82.426 29.3778 84.4469 31.9552C86.4678 34.5326 89.1916 35.8213 92.6184 35.8213C94.3757 35.8213 96.0598 35.4112 97.6707 34.5912C98.8129 34.0347 99.7355 33.3757 100.438 32.6142C101.141 31.8527 102.005 30.6372 103.03 28.9677L103.602 29.2753C102.84 30.7983 102.137 31.9991 101.493 32.8778C100.38 34.4301 98.7837 35.6748 96.7042 36.6121C94.654 37.52 92.4573 37.974 90.1142 37.974C85.4281 37.974 81.5473 36.4949 78.472 33.5368C75.426 30.5493 73.903 26.7565 73.903 22.1581C73.903 17.472 75.4992 13.5473 78.6917 10.3841C81.9134 7.22096 85.926 5.63938 90.7293 5.63938C91.8423 5.63938 92.9259 5.72725 93.9803 5.90298C95.0347 6.07871 96.1477 6.38624 97.3192 6.82557C98.5201 7.23561 99.3108 7.44063 99.6916 7.44063C100.512 7.44063 101.054 6.98666 101.317 6.07871Z" fill="white"/>
<path d="M120.999 37.7104V37.0514C122.229 37.0514 123.093 36.8903 123.591 36.5681C124.265 36.1581 124.602 35.3819 124.602 34.2397V32.3066L124.645 9.50547C124.645 8.39251 124.323 7.61636 123.679 7.17703C123.298 6.88414 122.434 6.7377 121.087 6.7377V6.03478H146.48L147.095 14.2942L146.26 14.3381C145.909 11.8778 145.074 10.2084 143.756 9.32974C143.141 8.9197 142.526 8.67075 141.911 8.58288C141.325 8.49502 140.783 8.43644 140.286 8.40715C139.788 8.37786 138.982 8.36322 137.869 8.36322H131.807L131.763 20.0933H137.035C138.938 20.0933 140.242 19.8297 140.945 19.3025C141.53 18.8046 141.911 17.6331 142.087 15.7879H142.746L142.702 26.6832H141.999C141.999 25.1016 141.633 23.9447 140.901 23.2125C140.315 22.6853 139.041 22.4217 137.078 22.4217L131.807 22.3778L131.763 34.2397C131.763 35.3819 132.099 36.1581 132.773 36.5681C133.037 36.7146 133.373 36.8317 133.784 36.9196C134.194 37.0075 134.721 37.0514 135.365 37.0514V37.7104H120.999Z" fill="white"/>
<path d="M148.776 37.7104V37.0514C150.094 37.0514 150.973 36.8903 151.412 36.5681C152.086 36.1581 152.423 35.3819 152.423 34.2397L152.511 9.50547C152.511 8.45109 152.159 7.67494 151.456 7.17703C151.017 6.88414 150.153 6.7377 148.864 6.7377V6.03478H163.23V6.7377C161.883 6.7377 161.004 6.88414 160.594 7.17703C159.921 7.61636 159.584 8.39251 159.584 9.50547L159.628 33.5368C159.628 34.4154 159.774 34.9573 160.067 35.1623C160.389 35.3673 161.854 35.4698 164.46 35.4698C168.063 35.4698 170.45 35.1476 171.621 34.5033C172.822 33.8589 173.862 32.2627 174.741 29.7146L175.444 29.8903L173.379 37.7104H148.776Z" fill="white"/>
<path d="M176.689 21.8945C176.689 17.0619 178.197 13.1373 181.214 10.1205C184.231 7.07452 188.185 5.55151 193.076 5.55151C197.967 5.55151 201.921 7.05988 204.938 10.0766C207.984 13.064 209.507 17.0034 209.507 21.8945C209.507 26.7272 207.984 30.6665 204.938 33.7125C201.921 36.7292 197.967 38.2376 193.076 38.2376C188.185 38.2376 184.231 36.7292 181.214 33.7125C178.197 30.6958 176.689 26.7565 176.689 21.8945ZM193.076 7.66029C190.264 7.66029 188.097 8.87577 186.574 11.3067C185.08 13.7377 184.333 17.267 184.333 21.8945C184.333 26.4636 185.08 29.9782 186.574 32.4384C188.067 34.8694 190.235 36.0849 193.076 36.0849C198.904 36.0849 201.818 31.3548 201.818 21.8945C201.818 12.405 198.904 7.66029 193.076 7.66029Z" fill="white"/>
<path d="M205.475 6.69377V6.03478H219.182V6.69377H218.567C217.19 6.69377 216.502 7.10381 216.502 7.92389C216.502 8.21678 216.619 8.65611 216.853 9.24188L223.663 27.9573L227.353 17.3695L224.366 9.24188C224.014 8.30464 223.619 7.64565 223.18 7.2649C222.77 6.88415 222.169 6.69377 221.378 6.69377H220.939V6.03478H234.602V6.69377H233.899C232.376 6.69377 231.615 7.11845 231.615 7.96782C231.615 8.34857 231.732 8.77326 231.966 9.24188L238.776 28.0891L245.322 9.24188C245.498 8.74397 245.585 8.31929 245.585 7.96782C245.585 7.11845 244.765 6.69377 243.125 6.69377H242.554V6.03478H251.56V6.69377H250.989C250.111 6.69377 249.437 6.88415 248.968 7.2649C248.529 7.61636 248.134 8.27535 247.782 9.24188L237.853 37.7104H234.822L228.627 20.7084L222.565 37.7104H219.577L209.209 9.24188C208.858 8.27535 208.448 7.61636 207.979 7.2649C207.54 6.88415 206.851 6.69377 205.914 6.69377H205.475Z" fill="white"/>
<path d="M251.034 6.7377V6.03478H276.734L277.437 14.1184L276.734 14.2063C276.383 11.7461 275.577 10.1205 274.318 9.32974C273.293 8.68539 271.169 8.36322 267.948 8.36322L261.841 8.31929L261.797 20.0494H268.695C270.686 20.0494 272.004 19.7858 272.648 19.2586C273.293 18.7314 273.718 17.5305 273.923 15.6561H274.669V26.7272L273.923 26.7711C273.659 24.8088 273.19 23.5786 272.517 23.0807C271.872 22.5828 270.584 22.3339 268.651 22.3339L261.797 22.2899V33.1853C261.797 34.064 261.9 34.6204 262.105 34.8547C262.515 35.2941 263.906 35.5137 266.278 35.5137C266.688 35.5137 267.552 35.4845 268.87 35.4259C270.218 35.338 271.228 35.2941 271.902 35.2941C273.044 35.2941 274.186 34.9719 275.328 34.3276C276.471 33.6832 277.481 32.1309 278.36 29.6707L279.019 29.7585L276.91 37.7104H251.034V37.0514C252.264 37.0514 253.128 36.8903 253.626 36.5681C254.299 36.1581 254.636 35.3819 254.636 34.2397L254.68 9.50547C254.68 8.4218 254.343 7.64565 253.669 7.17703C253.23 6.88414 252.352 6.7377 251.034 6.7377Z" fill="white"/>
<path d="M279.916 6.69377V6.03478H296.39C299.671 6.03478 302.307 6.76699 304.298 8.23142C306.29 9.69585 307.286 11.6435 307.286 14.0745C307.286 15.8318 306.656 17.428 305.397 18.8632C304.694 19.6833 303.859 20.3715 302.893 20.928C302.424 21.1623 301.882 21.3966 301.267 21.631C300.652 21.836 299.803 22.1142 298.719 22.4657L308.911 34.4594C309.761 35.4845 310.698 36.2313 311.723 36.6999C312.25 36.9342 312.909 37.0514 313.7 37.0514H314.183V37.7104H303.376L292.173 24.0473L290.811 23.9155V34.2397C290.811 35.3819 291.148 36.1581 291.821 36.5681C292.085 36.7146 292.422 36.8317 292.832 36.9196C293.242 37.0075 293.769 37.0514 294.413 37.0514V37.7104H279.96V37.0514C281.219 37.0514 282.098 36.8903 282.596 36.5681C283.298 36.1581 283.65 35.3819 283.65 34.2397L283.606 9.50547C283.606 8.36322 283.269 7.58707 282.596 7.17703C282.361 7.03059 282.039 6.91343 281.629 6.82557C281.219 6.7377 280.648 6.69377 279.916 6.69377ZM290.811 8.49502V20.8402L293.271 21.0598C295.116 21.0598 296.669 20.4448 297.928 19.2146C299.217 17.9552 299.861 16.3736 299.861 14.4699C299.861 12.6247 299.275 11.131 298.104 9.98874C296.962 8.81719 295.439 8.23142 293.535 8.23142C292.92 8.23142 292.012 8.31929 290.811 8.49502Z" fill="white"/>
<path d="M336.578 5.68331H337.413L337.545 16.1393H336.754C336.578 15.0557 336.402 14.1916 336.227 13.5473C335.758 11.9364 334.762 10.5599 333.239 9.41761C331.745 8.24607 330.105 7.66029 328.319 7.66029C326.766 7.66029 325.478 8.09962 324.453 8.97828C323.457 9.82765 322.959 10.926 322.959 12.2732C322.959 14.1184 324.043 15.6414 326.21 16.8423C326.708 17.1352 328.055 17.7356 330.252 18.6435C331.775 19.2586 333.122 19.8883 334.294 20.5326C337.632 22.2899 339.302 24.8381 339.302 28.177C339.302 31.0472 338.248 33.4196 336.139 35.2941C334.059 37.1685 331.438 38.1058 328.275 38.1058C326.371 38.1058 324.013 37.6665 321.202 36.7878C320.411 36.5242 319.708 36.3924 319.093 36.3924C318.302 36.3924 317.863 36.8757 317.775 37.8422H316.984L316.676 26.6393L317.511 26.5954C317.511 27.7962 317.672 28.9092 317.994 29.9343C318.317 30.9301 318.756 31.7794 319.312 32.4824C320.103 33.5075 321.216 34.3422 322.651 34.9865C323.354 35.2794 324.072 35.5137 324.804 35.6895C325.566 35.8652 326.312 35.9531 327.045 35.9531C328.655 35.9531 329.988 35.4698 331.043 34.5033C332.097 33.5368 332.624 32.292 332.624 30.769C332.624 29.4803 332.097 28.3234 331.043 27.2983C330.31 26.7711 329.139 26.1414 327.528 25.4092L325.815 24.6623L324.057 23.8715C321.948 22.9343 320.411 22.041 319.444 21.1916C317.54 19.61 316.589 17.4573 316.589 14.7335C316.589 12.0682 317.555 9.90087 319.488 8.23142C321.421 6.56197 323.969 5.72725 327.133 5.72725C328.773 5.72725 330.603 6.03478 332.624 6.64984L334.953 7.22097C335.919 7.22097 336.461 6.70841 336.578 5.68331Z" fill="white"/>
<path d="M7.56394 45.2486H8.22946V53.7828H13.4884V54.3831H7.56394V45.2486Z" fill="white"/>
<path d="M26.0326 54.4484C24.8755 54.4484 23.9751 54.1134 23.3314 53.4436C22.6963 52.7737 22.3787 51.795 22.3787 50.5075V45.2486H23.0443V50.4814C23.0443 51.6036 23.3009 52.4431 23.8142 52.9999C24.3275 53.5567 25.0713 53.835 26.0456 53.835C27.0113 53.835 27.7507 53.5567 28.264 52.9999C28.7773 52.4431 29.0339 51.6036 29.0339 50.4814V45.2486H29.6994V50.5075C29.6994 51.795 29.3776 52.7737 28.7338 53.4436C28.09 54.1134 27.1896 54.4484 26.0326 54.4484Z" fill="white"/>
<path d="M45.8442 54.3831L42.6993 50.1551L39.5674 54.3831H38.7845L42.2947 49.6723L39.0324 45.2486H39.8154L42.7254 49.1764L45.6354 45.2486H46.3792L43.1168 49.6592L46.6271 54.3831H45.8442Z" fill="white"/>
<path d="M59.3742 54.4484C58.2172 54.4484 57.3168 54.1134 56.673 53.4436C56.0379 52.7737 55.7204 51.795 55.7204 50.5075V45.2486H56.3859V50.4814C56.3859 51.6036 56.6426 52.4431 57.1558 52.9999C57.6691 53.5567 58.4129 53.835 59.3873 53.835C60.3529 53.835 61.0924 53.5567 61.6057 52.9999C62.1189 52.4431 62.3756 51.6036 62.3756 50.4814V45.2486H63.0411V50.5075C63.0411 51.795 62.7192 52.7737 62.0754 53.4436C61.4317 54.1134 60.5313 54.4484 59.3742 54.4484Z" fill="white"/>
<path d="M79.9266 54.3831L77.7473 51.3296C77.4254 51.3731 77.1297 51.3948 76.86 51.3948H74.2501V54.3831H73.5846V45.2486H76.86C78.0083 45.2486 78.9087 45.5226 79.5612 46.0707C80.2137 46.61 80.5399 47.3626 80.5399 48.3282C80.5399 49.0503 80.3529 49.6592 79.9788 50.1551C79.6134 50.6423 79.0871 50.9859 78.3998 51.186L80.6834 54.3831H79.9266ZM76.86 50.8076C77.8343 50.8076 78.5781 50.5945 79.0914 50.1682C79.6047 49.7332 79.8613 49.1199 79.8613 48.3282C79.8613 47.5366 79.6047 46.9276 79.0914 46.5013C78.5781 46.0663 77.8343 45.8488 76.86 45.8488H74.2501V50.8076H76.86Z" fill="white"/>
<path d="M93.1059 51.2382V54.3831H92.4404V51.2382L88.7605 45.2486H89.4913L92.7927 50.6249L96.0942 45.2486H96.7859L93.1059 51.2382Z" fill="white"/>
<path d="M119.946 45.2486C121.095 45.2486 121.995 45.5226 122.648 46.0707C123.3 46.61 123.626 47.3626 123.626 48.3282C123.626 49.2852 123.3 50.0377 122.648 50.5858C121.995 51.1251 121.095 51.3948 119.946 51.3948H117.336V54.3831H116.671V45.2486H119.946ZM119.946 50.7945C120.921 50.7945 121.665 50.5814 122.178 50.1551C122.691 49.7288 122.948 49.1199 122.948 48.3282C122.948 47.5366 122.691 46.9276 122.178 46.5013C121.665 46.0663 120.921 45.8488 119.946 45.8488H117.336V50.7945H119.946Z" fill="white"/>
<path d="M133.31 45.2486H133.975V53.7828H139.234V54.3831H133.31V45.2486Z" fill="white"/>
<path d="M154.045 51.8124H148.747L147.585 54.3831H146.867L151.069 45.2486H151.735L155.937 54.3831H155.219L154.045 51.8124ZM153.797 51.2513L151.396 45.9793L149.007 51.2513H153.797Z" fill="white"/>
<path d="M172.471 45.2486V54.3831H171.923L165.699 46.4491V54.3831H165.033V45.2486H165.594L171.806 53.1826V45.2486H172.471Z" fill="white"/>
<path d="M190.538 45.2486V54.3831H189.989L183.765 46.4491V54.3831H183.099V45.2486H183.661L189.872 53.1826V45.2486H190.538Z" fill="white"/>
<path d="M207.468 53.7828V54.3831H201.166V45.2486H207.273V45.8488H201.831V49.4505H206.699V50.0377H201.831V53.7828H207.468Z" fill="white"/>
<path d="M223.675 54.3831L221.496 51.3296C221.174 51.3731 220.878 51.3948 220.608 51.3948H217.999V54.3831H217.333V45.2486H220.608C221.757 45.2486 222.657 45.5226 223.31 46.0707C223.962 46.61 224.288 47.3626 224.288 48.3282C224.288 49.0503 224.101 49.6592 223.727 50.1551C223.362 50.6423 222.836 50.9859 222.148 51.186L224.432 54.3831H223.675ZM220.608 50.8076C221.583 50.8076 222.327 50.5945 222.84 50.1682C223.353 49.7332 223.61 49.1199 223.61 48.3282C223.61 47.5366 223.353 46.9276 222.84 46.5013C222.327 46.0663 221.583 45.8488 220.608 45.8488H217.999V50.8076H220.608Z" fill="white"/>
<path d="M244.17 50.5858H247.524V51.173H244.17V50.5858Z" fill="white"/>
<path d="M276.789 54.3831L276.776 46.5665L272.953 53.1695H272.627L268.803 46.5926V54.3831H268.151V45.2486H268.712L272.796 52.3083L276.881 45.2486H277.429L277.442 54.3831H276.789Z" fill="white"/>
<path d="M288.065 45.2486H288.73V54.3831H288.065V45.2486Z" fill="white"/>
<path d="M305.002 51.8124H299.704L298.542 54.3831H297.825L302.027 45.2486H302.692L306.894 54.3831H306.176L305.002 51.8124ZM304.754 51.2513L302.353 45.9793L299.965 51.2513H304.754Z" fill="white"/>
<path d="M324.629 54.3831L324.616 46.5665L320.793 53.1695H320.466L316.643 46.5926V54.3831H315.99V45.2486H316.552L320.636 52.3083L324.72 45.2486H325.268L325.282 54.3831H324.629Z" fill="white"/>
<path d="M335.904 45.2486H336.57V54.3831H335.904V45.2486Z" fill="white"/>
</svg>
